HIERARCHY
ROOT hip
{
  OFFSET 0.00112043 5.09927 -9.65472
  CHANNELS 6 Xposition Yposition Zposition Zrotation Xrotation Yrotation
  JOINT abdomen
  {
    OFFSET 0 -1.186 -1.5018
    CHANNELS 3 Zrotation Xrotation Yrotation
    JOINT abdomen2
    {
      OFFSET 0 9.964 0.2134
      CHANNELS 3 Zrotation Xrotation Yrotation
      JOINT chest
      {
        OFFSET 0 13.134 -3.2573
        CHANNELS 3 Zrotation Xrotation Yrotation
        JOINT neck
        {
          OFFSET 0 20.686 -1.6905
          CHANNELS 3 Zrotation Xrotation Yrotation
          JOINT head
          {
            OFFSET 0 7.238 -0.1237
            CHANNELS 3 Zrotation Xrotation Yrotation
            End Site
            {
              OFFSET 0 0 0
            }
          }
        }
        JOINT lCollar
        {
          OFFSET 1.7069 20.075 5.0056
          CHANNELS 3 Zrotation Xrotation Yrotation
          JOINT lShldr
          {
            OFFSET 13.6458 -0.047 -4.849
            CHANNELS 3 Zrotation Xrotation Yrotation
            JOINT lForeArm
            {
              OFFSET 28.3255 -0.9759 2.2888
              CHANNELS 3 Zrotation Xrotation Yrotation
              JOINT lHand
              {
                OFFSET 22.1583 -0.53 10.8316
                CHANNELS 3 Zrotation Xrotation Yrotation
                JOINT lThumb1
                {
                  OFFSET 0.786 0.112 2.5817
                  CHANNELS 3 Zrotation Xrotation Yrotation
                  JOINT lThumb2
                  {
                    OFFSET 0.3601 -0.878 4.2331
                    CHANNELS 3 Zrotation Xrotation Yrotation
                    JOINT lThumb2_End
                    {
                      OFFSET 1.8127 -1.216 2.2227
                      CHANNELS 3 Zrotation Xrotation Yrotation
                      End Site
                      {
                        OFFSET 0.0181 -0.0122 0.0222
                      }
                    }
                  }
                }
                JOINT lCarpal1
                {
                  OFFSET 0.9571 1.114 1.7695
                  CHANNELS 3 Zrotation Xrotation Yrotation
                  JOINT lIndex1
                  {
                    OFFSET 4.1246 0.487 4.1451
                    CHANNELS 3 Zrotation Xrotation Yrotation
                    JOINT lIndex2
                    {
                      OFFSET 3.4052 -1.454 2.7682
                      CHANNELS 3 Zrotation Xrotation Yrotation
                      JOINT lIndex2_End
                      {
                        OFFSET 1.4531 -1.795 1.2713
                        CHANNELS 3 Zrotation Xrotation Yrotation
                        End Site
                        {
                          OFFSET 0.0145 -0.0179 0.0127
                        }
                      }
                    }
                  }
                  JOINT lMid1
                  {
                    OFFSET 5.6954 0.21 2.1184
                    CHANNELS 3 Zrotation Xrotation Yrotation
                    JOINT lMid2
                    {
                      OFFSET 3.9766 -1.54 2.3863
                      CHANNELS 3 Zrotation Xrotation Yrotation
                      JOINT lMid2_End
                      {
                        OFFSET 1.4042 -1.926 1.125
                        CHANNELS 3 Zrotation Xrotation Yrotation
                        End Site
                        {
                          OFFSET 0.014 -0.0193 0.0113
                        }
                      }
                    }
                  }
                }
                JOINT lCarpal2
                {
                  OFFSET 2.0956 0.66 -0.3894
                  CHANNELS 3 Zrotation Xrotation Yrotation
                  JOINT lRing1
                  {
                    OFFSET 5.0395 -0.09 2.4971
                    CHANNELS 3 Zrotation Xrotation Yrotation
                    JOINT lRing2
                    {
                      OFFSET 3.7921 -1.552 1.4806
                      CHANNELS 3 Zrotation Xrotation Yrotation
                      JOINT lRing2_End
                      {
                        OFFSET 1.4655 -1.808 0.9609
                        CHANNELS 3 Zrotation Xrotation Yrotation
                        End Site
                        {
                          OFFSET 0.0147 -0.0181 0.0096
                        }
                      }
                    }
                  }
                  JOINT lPinky1
                  {
                    OFFSET 4.9141 -1.269 0.3591
                    CHANNELS 3 Zrotation Xrotation Yrotation
                    JOINT lPinky2
                    {
                      OFFSET 3.1477 -1.685 0.8462
                      CHANNELS 3 Zrotation Xrotation Yrotation
                      JOINT lPinky2_End
                      {
                        OFFSET 0.8055 -1.585 0.7955
                        CHANNELS 3 Zrotation Xrotation Yrotation
                        End Site
                        {
                          OFFSET 0.0081 -0.0158 0.008
                        }
                      }
                    }
                  }
                }
              }
            }
          }
        }
        JOINT rCollar
        {
          OFFSET -1.7069 20.075 5.0056
          CHANNELS 3 Zrotation Xrotation Yrotation
          JOINT rShldr
          {
            OFFSET -13.6458 -0.047 -4.849
            CHANNELS 3 Zrotation Xrotation Yrotation
            JOINT rForeArm
            {
              OFFSET -28.3255 -0.9759 2.2888
              CHANNELS 3 Zrotation Xrotation Yrotation
              JOINT rHand
              {
                OFFSET -22.1583 -0.53 10.8316
                CHANNELS 3 Zrotation Xrotation Yrotation
                JOINT rThumb1
                {
                  OFFSET -0.786 0.112 2.5817
                  CHANNELS 3 Zrotation Xrotation Yrotation
                  JOINT rThumb2
                  {
                    OFFSET -0.3601 -0.878 4.2331
                    CHANNELS 3 Zrotation Xrotation Yrotation
                    JOINT rThumb2_End
                    {
                      OFFSET -1.8127 -1.216 2.2227
                      CHANNELS 3 Zrotation Xrotation Yrotation
                      End Site
                      {
                        OFFSET -0.0181 -0.0122 0.0222
                      }
                    }
                  }
                }
                JOINT rCarpal1
                {
                  OFFSET -0.9571 1.114 1.7695
                  CHANNELS 3 Zrotation Xrotation Yrotation
                  JOINT rIndex1
                  {
                    OFFSET -4.1246 0.487 4.1451
                    CHANNELS 3 Zrotation Xrotation Yrotation
                    JOINT rIndex2
                    {
                      OFFSET -3.4052 -1.454 2.7682
                      CHANNELS 3 Zrotation Xrotation Yrotation
                      JOINT rIndex2_End
                      {
                        OFFSET -1.4531 -1.795 1.2713
                        CHANNELS 3 Zrotation Xrotation Yrotation
                        End Site
                        {
                          OFFSET -0.0145 -0.018 0.0127
                        }
                      }
                    }
                  }
                  JOINT rMid1
                  {
                    OFFSET -5.6954 0.21 2.1184
                    CHANNELS 3 Zrotation Xrotation Yrotation
                    JOINT rMid2
                    {
                      OFFSET -3.9766 -1.54 2.3863
                      CHANNELS 3 Zrotation Xrotation Yrotation
                      JOINT rMid2_End
                      {
                        OFFSET -1.4042 -1.926 1.125
                        CHANNELS 3 Zrotation Xrotation Yrotation
                        End Site
                        {
                          OFFSET -0.014 -0.0193 0.0113
                        }
                      }
                    }
                  }
                }
                JOINT rCarpal2
                {
                  OFFSET -2.0956 0.66 -0.3894
                  CHANNELS 3 Zrotation Xrotation Yrotation
                  JOINT rRing1
                  {
                    OFFSET -5.0395 -0.09 2.4971
                    CHANNELS 3 Zrotation Xrotation Yrotation
                    JOINT rRing2
                    {
                      OFFSET -3.7921 -1.552 1.4806
                      CHANNELS 3 Zrotation Xrotation Yrotation
                      JOINT rRing2_End
                      {
                        OFFSET -1.4655 -1.808 0.9609
                        CHANNELS 3 Zrotation Xrotation Yrotation
                        End Site
                        {
                          OFFSET -0.0147 -0.0181 0.0096
                        }
                      }
                    }
                  }
                  JOINT rPinky1
                  {
                    OFFSET -4.9141 -1.269 0.3592
                    CHANNELS 3 Zrotation Xrotation Yrotation
                    JOINT rPinky2
                    {
                      OFFSET -3.1477 -1.685 0.8462
                      CHANNELS 3 Zrotation Xrotation Yrotation
                      JOINT rPinky2_End
                      {
                        OFFSET -0.8055 -1.585 0.7955
                        CHANNELS 3 Zrotation Xrotation Yrotation
                        End Site
                        {
                          OFFSET -0.0081 -0.0158 0.008
                        }
                      }
                    }
                  }
                }
              }
            }
          }
        }
      }
    }
  }
  JOINT lThigh
  {
    OFFSET 8.367 -8.2066 0.5982
    CHANNELS 3 Zrotation Xrotation Yrotation
    JOINT lShin
    {
      OFFSET 2.1923 -43.463 -0.4932
      CHANNELS 3 Zrotation Xrotation Yrotation
      JOINT lFoot
      {
        OFFSET 0.7333 -45.8593 -2.6451
        CHANNELS 3 Zrotation Xrotation Yrotation
        End Site
        {
          OFFSET 2.6618 -4.2699 12.3931
        }
      }
    }
  }
  JOINT rThigh
  {
    OFFSET -8.367 -8.2066 0.5982
    CHANNELS 3 Zrotation Xrotation Yrotation
    JOINT rShin
    {
      OFFSET -2.1923 -43.463 -0.4931
      CHANNELS 3 Zrotation Xrotation Yrotation
      JOINT rFoot
      {
        OFFSET -0.7333 -45.8593 -2.6451
        CHANNELS 3 Zrotation Xrotation Yrotation
        End Site
        {
          OFFSET -2.6618 -4.2699 12.3931
        }
      }
    }
  }
}
MOTION
Frames:	5
Frame Time:	0.0333333
0 91.7903 2.51682 0 0 -0 0 0 -0 0 0 -0 0 0 -0 0 0 -0 0 0 -0 0 0 -0 1.66051 0.0835086 5.75766 -0.0175111 0.895433 15.7816 7.95139e-016 -1.98785e-016 -0 5.46658e-016 -3.97569e-016 -0 5.96354e-016 0 -0 3.97569e-016 1.98785e-016 9.54166e-015 1.49089e-016 -3.97569e-016 -0 6.4605e-016 0 3.18055e-015 5.96354e-016 0 3.18055e-015 8.94531e-016 -1.98785e-016 6.36111e-015 6.4605e-016 0 3.18055e-015 5.96354e-016 0 3.18055e-015 8.94531e-016 -1.98785e-016 6.36111e-015 1.49089e-016 -3.97569e-016 -0 6.4605e-016 0 3.18055e-015 5.96354e-016 0 3.18055e-015 8.94531e-016 -1.98785e-016 6.36111e-015 6.4605e-016 0 3.18055e-015 5.96354e-016 0 3.18055e-015 8.94531e-016 -1.98785e-016 6.36111e-015 0 0 -0 -1.4496 0.0636048 -5.0245 -1.74811 1.20616 -16.8394 -1.19271e-015 1.98785e-016 -3.18055e-015 -3.97569e-016 1.98785e-016 -3.18055e-015 -2.98177e-016 1.98785e-016 -3.18055e-015 -2.98177e-016 3.97569e-016 -0 4.96962e-016 0 -6.36111e-015 -9.93923e-017 3.97569e-016 -0 -8.94531e-016 5.96354e-016 -0 -3.97569e-016 3.97569e-016 -0 -9.93923e-017 3.97569e-016 -0 -8.94531e-016 5.96354e-016 -0 -3.97569e-016 3.97569e-016 -0 4.96962e-016 0 -6.36111e-015 -9.93923e-017 3.97569e-016 -0 -8.94531e-016 5.96354e-016 -0 -3.97569e-016 3.97569e-016 -0 -9.93923e-017 3.97569e-016 -0 -8.94531e-016 5.96354e-016 -0 -3.97569e-016 3.97569e-016 -0 -4.66111 -0.998717 0.12318 0.00986924 1.54847 0.176523 4.65186 -0.572283 -0.254274 4.66111 -0.998765 -0.123176 -0.00986867 1.54869 -0.176537 -4.65186 -0.572453 0.25427 
-7.37855 21.2291 59.394 -180 75.004 -180 -0.100354 -5.75323 -0.431086 -0.246347 -11.5055 -0.879061 -0.246347 -11.5055 -0.879061 -6.83097e-008 -31.0028 -1.51955e-006 6.16506e-007 -15.0017 1.89135e-007 -5.9104 -8.01677 -25.2493 8.52212 -1.62792 -14.3054 33.9322 -24.2483 -21.4048 6.08719 -10.6608 1.64074 -1.2521e-006 2.48155e-007 -5.60792e-006 1.59028e-015 -3.97569e-015 3.18055e-015 -1.59028e-015 -3.18055e-015 3.18055e-015 1.59028e-015 -1.59028e-015 9.54166e-015 -1.2521e-006 2.48155e-007 -5.60792e-006 1.59028e-015 -3.97569e-015 -0 6.17947e-031 -5.56597e-015 6.36111e-015 -1.2521e-006 2.48155e-007 -5.60792e-006 1.59028e-015 -3.97569e-015 -0 6.17947e-031 -5.56597e-015 6.36111e-015 1.59028e-015 -1.59028e-015 9.54166e-015 -1.2521e-006 2.48155e-007 -5.60792e-006 1.59028e-015 -3.97569e-015 -0 6.17947e-031 -5.56597e-015 6.36111e-015 -1.2521e-006 2.48155e-007 -5.60792e-006 1.59028e-015 -3.97569e-015 -0 6.17947e-031 -5.56597e-015 6.36111e-015 -3.1751 10.7115 -10.1403 121.667 25.4238 -42.4219 -10.8534 6.76326 4.63136 28.4897 -51.009 45.6338 3.84057e-006 4.46361e-006 2.0136e-006 1.33094e-006 1.57086e-006 5.02554e-006 -1.64246e-006 2.58123e-006 -5.42615e-006 -1.59028e-015 -7.25564e-015 3.97569e-016 3.84057e-006 4.46361e-006 2.0136e-006 1.33094e-006 1.57086e-006 5.02554e-006 -1.64246e-006 2.58123e-006 -5.42615e-006 3.84057e-006 4.46361e-006 2.0136e-006 1.33094e-006 1.57086e-006 5.02554e-006 -1.64246e-006 2.58123e-006 -5.42615e-006 -1.59028e-015 -7.25564e-015 3.97569e-016 3.84057e-006 4.46361e-006 2.0136e-006 1.33094e-006 1.57086e-006 5.02554e-006 -1.64246e-006 2.58123e-006 -5.42615e-006 3.84057e-006 4.46361e-006 2.0136e-006 1.33094e-006 1.57086e-006 5.02554e-006 -1.64246e-006 2.58123e-006 -5.42615e-006 111.453 -46.4761 118.994 34.6533 75.6488 -40.9006 35.9384 43.1446 -61.9119 -111.427 -46.4685 -119.005 -34.7943 75.6284 41.0327 -35.9464 43.1131 61.8916 
-7.37793 21.0701 59.4698 -180 76.1104 -180 -0.103503 -5.32511 -0.430043 -0.248973 -10.6493 -0.875507 -0.248973 -10.6493 -0.875507 1.08686e-006 -31.6131 6.14896e-007 3.63669e-007 -15.4459 1.187e-007 -5.30832 -8.70521 -25.4057 8.52212 -1.62792 -14.3054 33.6965 -24.0345 -21.0684 6.54076 -11.229 1.71746 3.18055e-015 2.38542e-015 -0 3.18055e-015 1.59028e-015 -6.36111e-015 1.59028e-015 1.59028e-015 -3.18055e-015 1.59028e-015 0 3.18055e-015 -1.11319e-014 -3.97569e-015 1.27222e-014 1.59028e-015 1.59028e-015 -6.36111e-015 3.18055e-015 2.38542e-015 -6.36111e-015 -1.11319e-014 -3.97569e-015 1.27222e-014 1.59028e-015 1.59028e-015 -6.36111e-015 3.18055e-015 2.38542e-015 -6.36111e-015 1.59028e-015 0 3.18055e-015 -1.11319e-014 -3.97569e-015 1.27222e-014 1.59028e-015 1.59028e-015 -6.36111e-015 3.18055e-015 2.38542e-015 -6.36111e-015 -1.11319e-014 -3.97569e-015 1.27222e-014 1.59028e-015 1.59028e-015 -6.36111e-015 3.18055e-015 2.38542e-015 -6.36111e-015 -1.97918 9.45737 -9.96367 119.951 24.1267 -42.8148 -10.0804 4.95936 6.70806 29.3513 -50.7124 44.4631 -1.91352e-006 -2.29627e-006 -9.46139e-007 -1.91352e-006 -2.29627e-006 -9.46139e-007 -4.20978e-006 -3.82751e-007 -2.30013e-006 -1.59028e-015 4.27387e-015 -0 -1.91352e-006 -2.29627e-006 -9.46139e-007 -1.91352e-006 -2.29627e-006 -9.46139e-007 -4.20978e-006 -3.82751e-007 -2.30013e-006 -1.91352e-006 -2.29627e-006 -9.46139e-007 -1.91352e-006 -2.29627e-006 -9.46139e-007 -4.20978e-006 -3.82751e-007 -2.30013e-006 -1.59028e-015 4.27387e-015 -0 -1.91352e-006 -2.29627e-006 -9.46139e-007 -1.91352e-006 -2.29627e-006 -9.46139e-007 -4.20978e-006 -3.82751e-007 -2.30013e-006 -1.91352e-006 -2.29627e-006 -9.46139e-007 -1.91352e-006 -2.29627e-006 -9.46139e-007 -4.20978e-006 -3.82751e-007 -2.30013e-006 109.973 -45.705 117.983 34.7571 75.688 -41.0251 37.4832 42.268 -63.1365 -109.941 -45.6614 -118.016 -34.897 75.6671 41.1571 -37.5459 42.2203 63.1596 
-7.37736 20.9105 59.5456 -180 77.2185 -180 -0.106612 -4.89137 -0.428669 -0.251491 -9.78179 -0.871303 -0.251491 -9.78177 -0.871303 -3.96132e-007 -32.2237 -1.72979e-006 -4.69454e-007 -15.8902 -1.03628e-007 -4.70634 -9.39597 -25.5553 8.52212 -1.62792 -14.3054 33.4597 -23.8218 -20.7313 6.99632 -11.797 1.79897 1.59028e-015 3.18055e-015 3.18055e-015 3.18055e-015 2.38542e-015 6.36111e-015 1.59028e-015 1.59028e-015 3.18055e-015 3.18055e-015 7.95139e-016 -0 1.59028e-015 8.74653e-015 3.18055e-015 -3.18055e-015 2.38542e-015 3.18055e-015 -1.32417e-031 2.38542e-015 3.18055e-015 1.59028e-015 8.74653e-015 3.18055e-015 -3.18055e-015 2.38542e-015 3.18055e-015 -1.32417e-031 2.38542e-015 3.18055e-015 3.18055e-015 7.95139e-016 -0 1.59028e-015 8.74653e-015 3.18055e-015 -3.18055e-015 2.38542e-015 3.18055e-015 -1.32417e-031 2.38542e-015 3.18055e-015 1.59028e-015 8.74653e-015 3.18055e-015 -3.18055e-015 2.38542e-015 3.18055e-015 -1.32417e-031 2.38542e-015 3.18055e-015 -0.778792 8.20223 -9.76038 118.231 22.8321 -43.2489 -9.24017 3.17656 8.81402 30.221 -50.4256 43.2873 1.59028e-015 3.57812e-015 3.18055e-015 3.18055e-015 1.27222e-014 -0 3.18055e-015 9.54166e-015 -7.95139e-016 8.27607e-032 -2.98177e-015 1.59028e-015 1.59028e-015 -2.50469e-014 3.97569e-015 1.40693e-031 1.0138e-014 -7.95139e-016 1.35176e-031 9.74045e-015 -7.95139e-016 1.59028e-015 -2.50469e-014 3.97569e-015 1.40693e-031 1.0138e-014 -7.95139e-016 1.35176e-031 9.74045e-015 -7.95139e-016 8.27607e-032 -2.98177e-015 1.59028e-015 1.59028e-015 -2.50469e-014 3.97569e-015 1.40693e-031 1.0138e-014 -7.95139e-016 1.35176e-031 9.74045e-015 -7.95139e-016 1.59028e-015 -2.50469e-014 3.97569e-015 1.40693e-031 1.0138e-014 -7.95139e-016 1.35176e-031 9.74045e-015 -7.95139e-016 108.527 -44.9104 117.008 34.857 75.7258 -41.1481 38.9837 41.3665 -64.316 -108.49 -44.831 -117.065 -34.9961 75.7045 41.2804 -39.0989 41.3007 64.3801 
-7.37683 20.7504 59.6214 -180 78.328 -180 -0.109729 -4.45261 -0.427129 -0.254023 -8.90427 -0.866786 -0.254022 -8.90426 -0.866786 1.86601e-005 -32.8352 1.06403e-005 -1.81121e-007 -16.3346 2.34299e-007 -4.10437 -10.0889 -25.698 8.52212 -1.62791 -14.3054 33.2218 -23.6105 -20.3939 7.45394 -12.3645 1.8853 -1.59028e-015 -1.35174e-014 3.18055e-015 -1.59028e-015 -1.35174e-014 -3.18055e-015 -1.59028e-015 -1.27222e-014 -0 -1.59028e-015 0 3.18055e-015 1.59028e-015 -1.27222e-014 3.18055e-015 1.59028e-015 -1.43125e-014 -0 -3.18055e-015 -1.43125e-014 -3.18055e-015 1.59028e-015 -1.27222e-014 3.18055e-015 1.59028e-015 -1.43125e-014 -0 -3.18055e-015 -1.43125e-014 -3.18055e-015 -1.59028e-015 0 3.18055e-015 1.59028e-015 -1.27222e-014 3.18055e-015 1.59028e-015 -1.43125e-014 -0 -3.18055e-015 -1.43125e-014 -3.18055e-015 1.59028e-015 -1.27222e-014 3.18055e-015 1.59028e-015 -1.43125e-014 -0 -3.18055e-015 -1.43125e-014 -3.18055e-015 0.426672 6.94736 -9.53041 116.506 21.5425 -43.7236 -8.33295 1.42023 10.9503 31.0983 -50.149 42.1069 1.89619e-006 2.41681e-006 8.18028e-007 1.89619e-006 2.41681e-006 8.18028e-007 4.313e-006 5.20619e-007 2.0659e-006 3.18055e-015 7.95139e-016 -7.95139e-016 1.89619e-006 2.41681e-006 8.18028e-007 1.89619e-006 2.41681e-006 8.18028e-007 4.313e-006 5.20619e-007 2.0659e-006 1.89619e-006 2.41681e-006 8.18028e-007 1.89619e-006 2.41681e-006 8.18028e-007 4.313e-006 5.20619e-007 2.0659e-006 3.18055e-015 7.95139e-016 -7.95139e-016 1.89619e-006 2.41681e-006 8.18028e-007 1.89619e-006 2.41681e-006 8.18028e-007 4.313e-006 5.20619e-007 2.0659e-006 1.89619e-006 2.41681e-006 8.18028e-007 1.89619e-006 2.41681e-006 8.18028e-007 4.313e-006 5.20619e-007 2.0659e-006 107.115 -44.0934 116.068 34.9526 75.762 -41.2692 40.4406 40.4417 -65.4512 -107.074 -43.9782 -116.15 -35.0908 75.7404 41.4016 -40.6063 40.3561 65.554 
